<?xml version="1.0" encoding="utf-8"?>
<!-- Svg Vector Icons : http://www.onlinewebfonts.com/icon -->
<!DOCTYPE svg PUBLIC "-//W3C//DTD SVG 1.1//EN" "http://www.w3.org/Graphics/SVG/1.1/DTD/svg11.dtd">
<svg version="1.1" xmlns="http://www.w3.org/2000/svg" xmlns:xlink="http://www.w3.org/1999/xlink" x="0px" y="0px" viewBox="0 0 1000 1000" enable-background="new 0 0 1000 1000" xml:space="preserve">
<metadata> Svg Vector Icons : http://www.onlinewebfonts.com/icon </metadata>
<g><g><g><path d="M368.9,787.5l-49.6,49.2c-43,42.6-112.9,42.6-155.9,0c-20.7-20.5-32-47.7-32-76.6c0-28.9,11.4-56.2,32-76.7L346,502.4c37.8-37.5,109-92.7,160.9-41.3c23.8,23.6,62.2,23.5,85.9-0.3c23.6-23.8,23.5-62.2-0.3-85.9c-88.2-87.5-218.5-71.3-332,41.3L77.9,597.3C34.1,640.8,10,698.6,10,760.1s24.1,119.4,67.9,162.8C123,967.7,182.2,990,241.4,990c59.2,0,118.4-22.3,163.5-67.1l49.6-49.3c23.8-23.6,23.9-62.1,0.3-85.9C431.2,764,392.7,763.9,368.9,787.5z M922.1,84C827.4-9.9,695-15,607.3,72l-61.8,61.4c-23.8,23.6-23.9,62.1-0.3,85.9c23.6,23.8,62.1,23.9,85.9,0.3l61.8-61.3c45.4-45.1,104.9-26.4,143.7,12.1c20.7,20.5,32,47.7,32,76.7c0,28.9-11.4,56.2-32,76.7L641.8,516.8c-89,88.3-130.8,46.9-148.6,29.2c-23.8-23.6-62.2-23.5-85.9,0.3c-23.6,23.8-23.5,62.2,0.3,85.9c40.9,40.6,87.5,60.7,136.5,60.7c59.9,0,123.1-30.2,183.3-89.9l194.7-193.2c43.8-43.5,67.9-101.3,67.9-162.9C990,185.4,965.9,127.5,922.1,84z"/></g></g><g></g><g></g><g></g><g></g><g></g><g></g><g></g><g></g><g></g><g></g><g></g><g></g><g></g><g></g><g></g></g>
</svg>